#!OML:ASF F:\VICON\USERDATA\INSTALL\rory3\rory3.ASF
:FULLY-SPECIFIED
:DEGREES
3678
root -1.62035 15.96 -1.2269 -1.43778 7.52086 -24.309
lowerback 17.7535 -0.496555 -12.4114
upperback 9.31457 -2.63392 -11.7515
thorax 0.242926 -1.4158 -5.26858
lowerneck -0.696612 -10.9602 -26.2346
upperneck -4.90379 -14.6527 23.2235
head 2.54081 -7.27428 10.8467
rclavicle 6.36111e-014 1.49486e-013
rhumerus -7.85248 -31.2409 3.79398
rradius 100.224
rwrist -19.267
rhand -43.6717 8.50017
rfingers 7.12502
rthumb -16.5051 -20.8178
lclavicle 6.36111e-014 1.49486e-013
lhumerus 23.7865 64.7334 58.2858
lradius 11.2374
lwrist -25.2689
lhand -15.4808 29.5929
lfingers 7.12502
lthumb 10.701 59.3003
rfemur -19.3313 -15.3273 51.097
rtibia 37.2639
rfoot -30.1469 0.442631
rtoes -10.2268
lfemur -31.9302 2.68883 17.8004
ltibia 57.0488
lfoot -26.617 -9.21347
ltoes -27.0703
3679
root -1.58653 15.942 -1.26903 -1.1806 6.60098 -24.5658
lowerback 17.8561 -0.523151 -12.3511
upperback 9.32949 -2.69144 -11.785
thorax 0.198574 -1.44583 -5.32777
lowerneck -0.621742 -11.0654 -26.2705
upperneck -5.08457 -14.7998 23.2488
head 2.51845 -7.35066 10.847
rclavicle -5.725e-014 -8.90555e-014
rhumerus -8.07223 -31.3153 3.90533
rradius 100.215
rwrist -19.2595
rhand -43.9208 8.46917
rfingers 7.12502
rthumb -16.745 -20.8287
lclavicle -5.725e-014 -8.90555e-014
lhumerus 22.8386 63.5885 58.4303
lradius 11.1377
lwrist -26.631
lhand -15.4369 29.7268
lfingers 7.12502
lthumb 10.7434 59.4321
rfemur -19.4988 -15.1358 51.2991
rtibia 37.3602
rfoot -30.0986 1.22512
rtoes -10.051
lfemur -31.8584 2.97819 18.0435
ltibia 57.4055
lfoot -26.8277 -8.44934
ltoes -27.9917
3680
root -1.54615 15.932 -1.30242 -0.911559 5.67869 -24.7477
lowerback 17.8559 -0.603738 -12.4388
upperback 9.29112 -2.82672 -11.7483
thorax 0.161401 -1.51992 -5.21336
lowerneck -0.6125 -11.038 -26.5595
upperneck -5.04773 -14.769 23.3406
head 2.55077 -7.33373 10.9299
rclavicle 6.36111e-015 6.99722e-014
rhumerus -7.76057 -31.3579 3.86477
rradius 100.079
rwrist -19.2351
rhand -44.0951 8.37294
rfingers 7.12502
rthumb -16.9127 -20.9106
lclavicle 6.36111e-015 6.99722e-014
lhumerus 21.045 62.7476 58.0083
lradius 11.3741
lwrist -28.0547
lhand -15.1123 29.8681
lfingers 7.12502
lthumb 11.0565 59.5569
rfemur -19.5866 -15.0882 51.3749
rtibia 37.4347
rfoot -30.1033 2.09066
rtoes -10.5294
lfemur -31.6838 3.18235 18.1685
ltibia 57.7248
lfoot -27.0424 -7.71587
ltoes -28.1824
3681
root -1.50516 15.9318 -1.32502 -0.605939 4.80018 -24.813
lowerback 17.6309 -0.730552 -12.6616
upperback 9.3158 -2.98209 -11.7074
thorax 0.32368 -1.61506 -5.02496
lowerneck -0.728697 -11.0327 -26.8456
upperneck -5.02128 -14.7275 23.295
head 2.58287 -7.30055 10.958
rclavicle -4.77083e-014 -1.04958e-013
rhumerus -7.18461 -31.4995 3.74122
rradius 99.852
rwrist -19.1633
rhand -44.216 8.47482
rfingers 7.12502
rthumb -17.0291 -20.7988
lclavicle -4.77083e-014 -1.04958e-013
lhumerus 19.2921 62.0719 57.6877
lradius 11.6878
lwrist -29.514
lhand -14.7644 29.443
lfingers 7.12502
lthumb 11.392 59.1136
rfemur -19.6352 -15.1342 51.3052
rtibia 37.4621
rfoot -30.1781 3.03815
rtoes -11.0085
lfemur -31.4547 3.35247 18.127
ltibia 57.9968
lfoot -27.3778 -6.75345
ltoes -29.0427
3682
root -1.46323 15.9244 -1.35491 -0.340278 3.9133 -25.0519
lowerback 17.5945 -0.818644 -12.5971
upperback 9.34529 -3.08621 -11.7214
thorax 0.368541 -1.67143 -5.05936
lowerneck -0.753223 -11.0907 -26.8436
upperneck -5.05412 -14.793 23.1788
head 2.5808 -7.32948 10.9057
rclavicle 2.38542e-014 1.43125e-013
rhumerus -7.06364 -31.6009 3.74629
rradius 99.7538
rwrist -19.1465
rhand -44.2976 8.5852
rfingers 7.12502
rthumb -17.1077 -20.6816
lclavicle 2.38542e-014 1.43125e-013
lhumerus 18.2384 61.1227 57.8526
lradius 11.8498
lwrist -31.0689
lhand -14.5229 28.6413
lfingers 7.12502
lthumb 11.6249 58.2988
rfemur -19.6727 -15.1457 51.4146
rtibia 37.4264
rfoot -30.1844 3.98948
rtoes -11.0913
lfemur -31.2805 3.50928 18.2929
ltibia 58.2772
lfoot -27.5516 -5.91213
ltoes -29.2282
3683
root -1.42266 15.9125 -1.39469 -0.0681667 2.95891 -25.4393
lowerback 17.7505 -0.847594 -12.3858
upperback 9.29765 -3.14776 -11.7337
thorax 0.214776 -1.69525 -5.17063
lowerneck -0.528812 -11.1322 -26.761
upperneck -5.11784 -14.8982 23.0634
head 2.53248 -7.39381 10.8512
rclavicle -4.77083e-015 -1.90833e-014
rhumerus -7.2012 -31.6798 3.9036
rradius 99.7833
rwrist -19.2677
rhand -44.0942 8.06111
rfingers 7.12502
rthumb -16.9119 -21.2226
lclavicle -4.77083e-015 -1.90833e-014
lhumerus 17.4127 59.9858 58.1684
lradius 11.9973
lwrist -32.4793
lhand -14.5686 27.7648
lfingers 7.12502
lthumb 11.5808 57.4249
rfemur -19.7435 -15.0229 51.7148
rtibia 37.3768
rfoot -30.068 4.83004
rtoes -11.3454
lfemur -31.1422 3.76847 18.6416
ltibia 58.5653
lfoot -27.6348 -5.31146
ltoes -29.0334
3684
root -1.38075 15.9103 -1.42826 0.245666 2.00613 -25.5616
lowerback 17.7801 -0.907628 -12.4648
upperback 9.25757 -3.26382 -11.7876
thorax 0.156361 -1.75638 -5.16554
lowerneck -0.539531 -11.1801 -26.7607
upperneck -4.97205 -14.9734 22.9498
head 2.58162 -7.43084 10.7959
rclavicle -3.02153e-014 -4.45278e-014
rhumerus -7.12215 -31.776 3.89277
rradius 99.7873
rwrist -19.2545
rhand -44.0628 7.72098
rfingers 7.12502
rthumb -16.8816 -21.5653
lclavicle -3.02153e-014 -4.45278e-014
lhumerus 16.7261 58.9589 58.5656
lradius 12.0324
lwrist -33.7939
lhand -14.3431 26.8702
lfingers 7.12502
lthumb 11.7983 56.5179
rfemur -19.7815 -14.9416 51.7214
rtibia 37.3091
rfoot -30.044 5.59181
rtoes -11.9354
lfemur -30.9553 3.95461 18.6571
ltibia 58.8129
lfoot -27.7199 -4.71254
ltoes -28.3808
3685
root -1.3358 15.9068 -1.45628 0.577346 1.04525 -25.5586
lowerback 17.712 -0.928675 -12.5431
upperback 9.24231 -3.30696 -11.8911
thorax 0.174819 -1.78326 -5.23283
lowerneck -0.566923 -11.2478 -26.8182
upperneck -4.97825 -15.0582 22.9213
head 2.60622 -7.47041 10.78
rclavicle -2.38542e-014 -4.77083e-014
rhumerus -7.18242 -31.8542 4.00267
rradius 99.7502
rwrist -19.1804
rhand -44.1264 7.55982
rfingers 7.12502
rthumb -16.9429 -21.7212
lclavicle -2.38542e-014 -4.77083e-014
lhumerus 16.4185 57.7603 59.3152
lradius 12.0462
lwrist -35.0246
lhand -13.8511 26.2909
lfingers 7.12502
lthumb 12.2727 55.9107
rfemur -19.7677 -14.8394 51.5409
rtibia 37.2549
rfoot -30.1314 6.58453
rtoes -11.7518
lfemur -30.7312 4.15008 18.5058
ltibia 59.0446
lfoot -27.8695 -3.87341
ltoes -28.7588
3686
root -1.29014 15.9067 -1.48609 0.892068 0.0627754 -25.511
lowerback 17.708 -0.892833 -12.5969
upperback 9.23826 -3.2873 -12.0627
thorax 0.167082 -1.77644 -5.4002
lowerneck -0.440426 -11.2921 -26.804
upperneck -5.22277 -15.1302 22.977
head 2.53836 -7.51287 10.7993
rclavicle 2.22639e-014 4.77083e-014
rhumerus -7.5268 -31.826 4.23792
rradius 99.787
rwrist -19.001
rhand -44.3372 7.22539
rfingers 7.12502
rthumb -17.1458 -22.0381
lclavicle 2.22639e-014 4.77083e-014
lhumerus 16.3502 56.3955 60.2221
lradius 12.3016
lwrist -36.3887
lhand -12.8744 26.1087
lfingers 7.12502
lthumb 13.2143 55.6698
rfemur -19.7304 -14.663 51.279
rtibia 37.2338
rfoot -30.1779 7.60769
rtoes -11.4978
lfemur -30.4752 4.41039 18.2882
ltibia 59.2751
lfoot -27.9754 -3.13127
ltoes -28.94
3687
root -1.24666 15.9081 -1.51565 1.18006 -0.857626 -25.5174
lowerback 17.7554 -0.935722 -12.7023
upperback 9.26072 -3.38071 -12.2114
thorax 0.166176 -1.82777 -5.49434
lowerneck -0.525998 -11.3208 -26.7813
upperneck -5.39907 -15.134 23.036
head 2.50813 -7.51074 10.814
rclavicle 5.40694e-014 9.54166e-014
rhumerus -7.58422 -31.957 4.15818
rradius 99.847
rwrist -18.7752
rhand -44.63 7.09907
rfingers 7.12502
rthumb -17.4276 -22.1397
lclavicle 5.40694e-014 9.54166e-014
lhumerus 16.2901 55.226 61.0549
lradius 12.6191
lwrist -37.6377
lhand -12.1859 24.8629
lfingers 7.12502
lthumb 13.8779 54.3798
rfemur -19.7324 -14.5907 51.1112
rtibia 37.2266
rfoot -30.2529 8.49985
rtoes -11.6789
lfemur -30.2571 4.5635 18.1345
ltibia 59.534
lfoot -28.1223 -2.44568
ltoes -29.019
3688
root -1.20023 15.8916 -1.545 1.45123 -1.74138 -25.7176
lowerback 17.7892 -1.02582 -12.7621
upperback 9.27288 -3.52187 -12.1922
thorax 0.165546 -1.90496 -5.41506
lowerneck -0.53025 -11.3074 -26.998
upperneck -5.47599 -15.1061 23.0952
head 2.50252 -7.49344 10.8745
rclavicle -3.02153e-014 -4.13472e-014
rhumerus -7.33985 -32.114 4.12361
rradius 99.8048
rwrist -18.7152
rhand -44.8238 7.02357
rfingers 7.12502
rthumb -17.6141 -22.1986
lclavicle -3.02153e-014 -4.13472e-014
lhumerus 16.0863 54.2468 61.8398
lradius 12.8136
lwrist -38.5604
lhand -12.4205 23.0997
lfingers 7.12502
lthumb 13.6517 52.632
rfemur -19.7609 -14.5752 51.161
rtibia 37.1694
rfoot -30.2979 9.37212
rtoes -12.0005
lfemur -30.0958 4.49878 18.216
ltibia 59.8483
lfoot -28.2953 -1.81091
ltoes -28.3771
3689
root -1.15279 15.8785 -1.57587 1.76253 -2.70469 -26.0176
lowerback 17.6561 -1.07287 -12.6964
upperback 9.30608 -3.55357 -12.207
thorax 0.2645 -1.92821 -5.46669
lowerneck -0.273692 -11.3343 -27.1822
upperneck -5.47847 -15.2145 23.2047
head 2.5121 -7.56233 10.9413
rclavicle 4.45278e-014 1.20861e-013
rhumerus -7.26726 -32.2911 4.09942
rradius 99.6899
rwrist -18.7021
rhand -44.7187 7.19563
rfingers 7.12502
rthumb -17.513 -22.0355
lclavicle 4.45278e-014 1.20861e-013
lhumerus 15.9315 53.1902 62.4818
lradius 12.979
lwrist -39.4732
lhand -12.5638 21.9962
lfingers 7.12502
lthumb 13.5137 51.5377
rfemur -19.7767 -14.46 51.3118
rtibia 37.0709
rfoot -30.2536 10.3033
rtoes -12.2691
lfemur -29.9238 4.79082 18.4097
ltibia 60.154
lfoot -28.4523 -1.52822
ltoes -27.1537
3690
root -1.10666 15.8843 -1.605 2.04789 -3.63033 -26.2095
lowerback 17.5027 -1.11269 -12.6883
upperback 9.39776 -3.57102 -12.2832
thorax 0.44117 -1.94795 -5.56278
lowerneck -0.0235207 -11.3919 -27.3911
upperneck -5.61904 -15.3606 23.5047
head 2.51699 -7.65285 11.0754
rclavicle -1.27222e-014 -1.90833e-014
rhumerus -7.34734 -32.5402 4.0913
rradius 99.7432
rwrist -18.7136
rhand -44.6637 7.29759
rfingers 7.12502
rthumb -17.46 -21.9383
lclavicle -1.27222e-014 -1.90833e-014
lhumerus 15.869 52.1327 63.1253
lradius 13.2184
lwrist -39.8639
lhand -12.7436 21.7641
lfingers 7.12502
lthumb 13.3404 51.3171
rfemur -19.7393 -14.3871 51.3396
rtibia 36.9415
rfoot -30.2304 11.2163
rtoes -12.4217
lfemur -29.7018 5.27642 18.4523
ltibia 60.373
lfoot -28.5975 -1.06803
ltoes -27.1515
3691
root -1.06063 15.8841 -1.63317 2.38781 -4.48594 -26.3514
lowerback 17.4227 -1.25606 -12.8678
upperback 9.56041 -3.74577 -12.2631
thorax 0.679046 -2.05585 -5.42521
lowerneck -0.772186 -11.5793 -27.638
upperneck -5.38148 -15.4539 23.6237
head 2.7647 -7.65833 11.0857
rclavicle -3.97569e-014 -3.81667e-014
rhumerus -6.878 -33.0665 3.8459
rradius 99.7344
rwrist -18.6492
rhand -44.748 7.38428
rfingers 7.12502
rthumb -17.5412 -21.8444
lclavicle -3.97569e-014 -3.81667e-014
lhumerus 16.4804 51.2952 64.4254
lradius 13.2891
lwrist -39.6386
lhand -11.7926 21.7974
lfingers 7.12502
lthumb 14.2568 51.288
rfemur -19.7698 -14.3484 51.3339
rtibia 36.7756
rfoot -30.2083 12.1113
rtoes -12.4421
lfemur -29.5463 5.37702 18.4132
ltibia 60.5459
lfoot -28.7313 -0.321897
ltoes -26.9925
